<?xml version="1.0"?>
<svg xmlns="http://www.w3.org/2000/svg" xmlns:xlink="http://www.w3.org/1999/xlink" id="visual" viewBox="0 0 960 540" width="960" height="540" version="1.1" style="background-color:transparent;">
  <rect x="0" y="0" width="960" height="540" fill="none"/>
  <defs>
    <linearGradient id="grad1_0" x1="43.8%" y1="0%" x2="100%" y2="100%">
      <stop offset="14.444444444444446%" stop-color="#ffffff" stop-opacity="1"/>
      <stop offset="85.55555555555554%" stop-color="#ffffff" stop-opacity="1"/>
    </linearGradient>
  </defs>
  <defs>
    <linearGradient id="grad2_0" x1="0%" y1="0%" x2="56.3%" y2="100%">
      <stop offset="14.444444444444446%" stop-color="#ffffff" stop-opacity="1"/>
      <stop offset="85.55555555555554%" stop-color="#ffffff" stop-opacity="1"/>
    </linearGradient>
  </defs>
  <g transform="translate(960, 0)">
    <path d="M0 297C-11.4 255.3 -22.8 213.6 -36.1 204.8C-49.4 196.1 -64.6 220.3 -86.9 238.7C-109.1 257 -138.5 269.5 -146.5 253.7C-154.5 238 -141.3 194.1 -151.1 180C-160.8 166 -193.6 181.8 -213 178.7C-232.4 175.6 -238.4 153.7 -226 130.5C-213.6 107.3 -182.7 83 -196.4 71.5C-210.1 60 -268.3 61.3 -292.5 51.6C-316.7 41.8 -306.8 20.9 -297 0L0 0Z" fill="#02cff0"/>
  </g>
  <g transform="translate(0, 540)">
    <path d="M0 -297C15.2 -284.2 30.3 -271.3 47.8 -270.8C65.2 -270.3 84.8 -282.2 101.6 -279.1C118.3 -276 132.1 -257.9 135 -233.8C137.9 -209.8 129.7 -179.8 145.9 -173.9C162.1 -168 202.5 -186.2 210.7 -176.8C218.8 -167.3 194.7 -130.1 187.9 -108.5C181.2 -86.9 191.9 -81 198.3 -72.2C204.7 -63.4 206.8 -51.7 222.6 -39.2C238.3 -26.7 267.7 -13.4 297 0L0 0Z" fill="#02cff0"/>
  </g>
</svg>
